PathFileType	4	(X/Y/Z)	 s10c0201.trc
DataRate	CameraRate	NumFrames	NumMarkers	Units	OrigDataRate	OrigDataStartFrame	OrigNumFrames
200	200	6	50	mm	200	501	2000
Frame#	Time	racr			lacr			c7			jug			rlel			rdr			llel			ldr			s2			lic			ric			lasi			rasi			rpsi			lpsi			rgt			lgt			rth1			rth2			rth3			rth4			rlfc			rmfc			rsh1			rsh2			rsh3			rsh4			rlmal			rmmal			rcal			rtoe			rmt5			lth1			lth2			lth4			lth3			llfc			lmfc			llmal			lmmal			lcal			lmt5			lsh1			lsh2			lsh3			lsh4			ltoe			SBIKE			LBIKE			RBIKE			
		X1	Y1	Z1	X2	Y2	Z2	X3	Y3	Z3	X4	Y4	Z4	X5	Y5	Z5	X6	Y6	Z6	X7	Y7	Z7	X8	Y8	Z8	X9	Y9	Z9	X10	Y10	Z10	X11	Y11	Z11	X12	Y12	Z12	X13	Y13	Z13	X14	Y14	Z14	X15	Y15	Z15	X16	Y16	Z16	X17	Y17	Z17	X18	Y18	Z18	X19	Y19	Z19	X20	Y20	Z20	X21	Y21	Z21	X22	Y22	Z22	X23	Y23	Z23	X24	Y24	Z24	X25	Y25	Z25	X26	Y26	Z26	X27	Y27	Z27	X28	Y28	Z28	X29	Y29	Z29	X30	Y30	Z30	X31	Y31	Z31	X32	Y32	Z32	X33	Y33	Z33	X34	Y34	Z34	X35	Y35	Z35	X36	Y36	Z36	X37	Y37	Z37	X38	Y38	Z38	X39	Y39	Z39	X40	Y40	Z40	X41	Y41	Z41	X42	Y42	Z42	X43	Y43	Z43	X44	Y44	Z44	X45	Y45	Z45	X46	Y46	Z46	X47	Y47	Z47	X48	Y48	Z48	X49	Y49	Z49	X50	Y50	Z50	
501	2.5050	398.004984	1295.635537	-127.675154	345.343970	1297.893513	-421.806272	315.130359	1352.770083	-267.638169	314.580735	1202.442990	-265.277214	447.891089	1060.837279	18.419636	617.156175	911.538287	-1.108677	442.727292	1034.373936	-472.566709	632.752500	919.068709	-385.439925	-168.019295	1087.412894	-171.456732	-54.956383	1142.339556	-353.072343	37.363708	1117.171113	-61.671261	-9.717306	1059.295843	-333.124501	47.969913	1038.050536	-84.626106	-121.472663	1145.361187	-120.150255	-145.659373	1163.611749	-227.147417	-56.084375	986.024997	-16.905206	-118.512813	1008.958201	-394.728518	32.350010	870.042582	-12.134106	95.311555	813.086987	-38.643705	122.082030	732.541249	-49.024516	123.612819	835.784121	-49.665525	175.375850	644.279147	-69.626642	152.947297	631.627336	-183.673280	119.595708	544.174041	-31.645086	124.912009	455.806535	-40.229626	87.265089	378.016891	-38.846148	154.160758	451.737535	-65.074524	61.627943	269.445927	-50.085081	86.216058	279.796409	-128.164455	10.925481	272.623739	-101.238504	216.905364	140.079376	-89.240877	130.031860	157.123823	-32.611924	3.067879	958.265288	-416.030265	89.515712	963.793445	-409.603252	96.328443	997.703353	-398.253970	168.931818	924.199352	-413.621690	281.254040	887.532005	-401.950492	291.285357	881.060569	-277.259765	99.540045	557.604455	-377.694527	109.677073	568.261073	-294.304289	38.910210	519.661860	-333.432870	216.441031	486.494421	-392.356051	216.558809	785.120835	-421.753173	203.164320	699.796045	-402.915201	145.675400	632.175008	-396.780068	228.491819	693.442038	-375.321757	292.017051	526.072151	-332.433292	-205.471185	833.978956	-224.467230	-78.299398	81.638065	-423.718348	-102.756484	80.447503	-24.399641	
502	2.5100	399.807560	1293.879575	-130.046964	346.156171	1296.256679	-422.864731	316.392028	1350.927055	-269.016589	315.454847	1200.445000	-266.682912	447.484023	1060.178982	17.786723	617.003806	911.498444	-1.647908	442.035965	1032.569894	-474.334668	632.632540	919.275586	-385.855539	-167.610021	1088.163377	-171.581950	-54.806752	1142.453023	-353.646407	37.815557	1117.212210	-62.230157	-9.552054	1059.211106	-333.532532	48.024623	1038.508590	-84.857903	-121.053351	1146.165998	-120.485756	-145.075587	1164.269071	-227.478795	-56.121369	986.915723	-16.879972	-118.367847	1009.392246	-394.801067	32.672478	870.849501	-12.455790	95.648875	814.046316	-39.404781	122.541740	733.475615	-49.454996	123.812013	836.740849	-50.259032	175.768972	645.115002	-70.114866	152.634379	632.565941	-184.005136	119.765685	545.152220	-31.995000	124.270682	456.833526	-40.679950	85.847324	379.259040	-39.137009	153.206500	452.443255	-65.805105	58.985856	270.784222	-50.628784	83.703186	280.845276	-128.599035	8.419578	274.059381	-102.092372	213.681221	140.432288	-89.254846	126.722469	157.982191	-32.986867	3.483992	958.589037	-415.809885	89.936717	963.822543	-409.035281	96.820654	997.681077	-397.589282	169.226278	923.879653	-412.636602	281.619278	886.742638	-400.332194	291.052124	880.134028	-275.812635	101.952166	555.445982	-377.577640	111.066659	565.862090	-294.311440	41.694269	516.735850	-333.326502	219.570353	485.508662	-392.333506	217.536708	784.201967	-420.788684	204.788330	698.472921	-402.155575	147.671476	630.489212	-396.334181	230.079268	692.250548	-374.419067	294.707279	525.895258	-332.333881	-205.429927	833.967391	-224.468447	-78.248126	81.702486	-423.728644	-102.760287	80.444171	-24.395065	
503	2.5150	401.748647	1292.145664	-132.409698	347.044302	1294.561918	-423.820390	317.677230	1349.050698	-270.269644	316.509024	1198.410605	-267.919460	446.922802	1059.501389	16.977941	617.318988	911.767634	-2.119815	441.614937	1030.790514	-476.152323	632.475761	919.431201	-386.323213	-167.186845	1089.026525	-171.677194	-54.485931	1142.572669	-354.305314	38.267198	1117.250946	-62.808187	-9.293433	1059.158349	-333.930564	48.022653	1038.758659	-85.057648	-120.713375	1147.228113	-120.805437	-144.504238	1164.944710	-227.816824	-56.179820	987.871617	-16.925759	-118.055289	1009.874697	-394.891806	33.035960	871.626386	-12.768081	96.007683	814.943962	-39.797781	122.991909	734.451246	-49.826731	124.046938	837.657682	-50.903805	176.285650	645.744003	-70.590865	152.709754	633.757844	-184.122288	119.839493	546.040740	-32.313553	123.468848	457.628693	-41.020084	84.268203	380.586002	-39.409452	152.178754	453.152124	-66.289327	56.185073	272.092438	-51.377048	81.322145	282.021205	-129.111937	6.018240	275.579735	-103.085854	210.408917	140.813046	-89.050408	123.198218	158.903663	-33.431048	4.088882	958.838730	-415.393250	90.487085	963.808029	-408.321516	97.445811	997.612238	-396.894226	169.632306	923.556490	-411.609286	282.191413	886.097710	-398.686590	290.986927	879.398556	-274.243748	104.440618	553.517247	-377.718320	113.048784	563.595967	-294.099883	44.624139	513.948170	-333.029443	222.685659	484.331298	-392.156608	218.749190	782.990068	-419.579975	206.495123	697.113742	-401.297780	149.800851	628.825642	-395.864547	231.704189	690.999686	-373.489250	297.429542	525.547213	-332.310483	-205.406053	833.983749	-224.447419	-78.261959	81.709844	-423.768903	-102.747026	80.451019	-24.397242	
504	2.5200	403.611452	1290.375992	-134.806950	347.989983	1292.776596	-424.818445	319.018211	1347.158790	-271.565744	317.476164	1196.359593	-269.158949	446.533142	1058.866102	16.102744	617.076991	911.663903	-2.703315	440.968748	1028.801395	-477.872384	632.276820	919.573257	-386.829149	-166.741833	1089.735097	-171.802297	-53.991483	1142.698189	-354.951733	38.701529	1117.342779	-63.394734	-8.932348	1059.114481	-334.245035	48.085158	1039.120198	-85.228169	-120.233862	1148.086406	-121.125689	-143.855782	1165.675275	-228.171167	-56.218736	988.826122	-16.911569	-117.513261	1010.271780	-395.036048	33.337485	872.457564	-12.966933	96.508770	815.766857	-40.114871	123.454446	735.238969	-50.177872	124.262978	838.493079	-51.601522	176.966350	646.426542	-71.040697	152.617552	634.720721	-184.449296	119.640466	547.204105	-32.576516	122.454179	458.822199	-41.307286	82.525733	381.918416	-39.788744	151.046513	453.965632	-66.747864	53.354941	273.486876	-52.268328	78.994885	283.322417	-129.822821	3.488684	277.266057	-104.427369	207.271597	141.514819	-88.879550	119.673616	160.015032	-33.889162	4.819051	959.128618	-415.271363	91.196651	963.742272	-407.674459	98.225679	997.469114	-396.160604	170.178681	923.127468	-410.521973	282.758708	885.297467	-396.933371	290.932061	878.494645	-272.831410	106.973768	551.423259	-377.679569	115.432000	561.364431	-293.792547	47.527029	511.167922	-332.810256	225.784939	483.164585	-392.016441	219.988264	781.870007	-418.351411	208.200005	695.854761	-400.332277	151.934392	627.198260	-395.353474	233.413324	689.784989	-372.575593	300.238858	525.071082	-332.251248	-205.389010	833.992822	-224.448833	-78.258159	81.735447	-423.796844	-102.760954	80.455389	-24.383581	
505	2.5250	405.521012	1288.528940	-137.206516	349.046466	1291.002973	-425.729486	320.425621	1345.221629	-272.850879	318.535104	1194.260138	-270.410520	446.115944	1058.060294	15.113309	616.737832	911.473604	-3.292504	440.306213	1026.841638	-479.732304	632.037659	919.649032	-387.212413	-166.309756	1090.723948	-172.081394	-53.477612	1142.858397	-355.566509	39.136307	1117.419441	-63.940528	-8.447688	1059.048725	-334.519784	48.080207	1039.348576	-85.371854	-119.733553	1149.109400	-121.523115	-143.106230	1166.373258	-228.644916	-56.280047	989.702464	-16.964284	-116.788635	1010.771306	-395.200261	33.753532	873.091240	-13.258184	96.900313	816.531244	-40.419075	123.997401	736.026123	-50.531956	124.562061	839.313586	-52.150266	177.618998	647.011148	-71.409830	152.636933	635.781842	-184.723102	119.358588	548.163386	-32.803770	121.221818	459.719288	-41.708004	80.611247	383.305075	-40.354709	149.743582	454.780514	-67.139979	50.589999	275.017950	-53.102968	76.512088	284.739436	-130.666415	0.888511	278.854690	-105.262256	203.967419	142.114768	-88.920339	116.483114	161.312301	-34.306661	5.691206	959.286864	-415.044133	92.040050	963.563243	-406.984527	99.156015	997.322697	-395.440027	170.890646	922.643817	-409.351572	283.389325	884.554365	-395.257626	290.979429	877.646277	-271.163005	109.620094	549.264029	-377.284825	117.838690	559.125392	-293.416772	50.273866	508.460002	-332.699101	228.922222	481.996187	-391.922871	221.283112	780.728162	-417.131163	209.957915	694.719295	-399.494214	154.103969	625.492988	-394.695245	235.153184	688.642417	-371.635863	303.008284	524.536286	-332.187854	-205.380522	833.992187	-224.436914	-78.242934	81.796273	-423.849203	-102.742528	80.454479	-24.392484	
506	2.5300	407.406365	1286.777838	-139.581012	350.168609	1289.130009	-426.625199	321.859282	1343.412912	-274.027500	319.483534	1192.291063	-271.407062	445.576820	1057.290783	14.003509	616.369441	911.252305	-3.784175	439.632129	1024.742198	-481.470711	631.807740	919.711834	-387.588153	-165.812082	1091.288839	-172.309874	-52.895984	1142.964437	-356.132976	39.586455	1117.523913	-64.421542	-7.855891	1059.002957	-334.738954	48.030086	1039.504188	-85.506838	-119.201176	1149.978993	-121.860985	-142.352715	1167.056231	-229.008682	-56.257290	990.485183	-17.002089	-115.881574	1011.231409	-395.424854	34.147924	873.691496	-13.461670	97.337514	817.259907	-40.798308	124.538398	736.806453	-50.843984	123.523619	839.606706	-53.917718	178.282960	647.721845	-71.731988	152.848825	636.559712	-184.947705	118.820352	549.305108	-33.027309	119.949258	460.857011	-42.074720	78.540215	384.696979	-41.025024	148.440014	455.552451	-67.446756	48.001410	276.751035	-53.712700	73.803971	286.083540	-131.328427	-1.949032	280.528404	-105.846638	200.617529	142.869422	-89.209166	113.274203	162.607926	-34.648005	6.700121	959.418562	-414.843198	93.042233	963.346858	-406.271488	100.215735	997.076544	-394.702526	171.727016	922.121618	-408.275625	284.103585	883.730116	-393.437654	291.146746	876.765682	-269.464741	112.183803	547.188016	-377.174842	120.519443	556.973824	-293.092617	53.361618	505.705719	-332.570192	232.105018	480.744722	-391.850986	222.592542	779.598118	-415.798131	211.713894	693.393094	-398.477647	156.300240	623.893292	-394.103721	236.945174	687.338184	-370.609425	305.864591	523.796610	-331.904203	-205.363087	833.995079	-224.451680	-78.164487	81.973728	-424.035236	-102.750235	80.443062	-24.395102	
